<?xml version="1.0" encoding="utf-8"?>
<!-- Generator: Adobe Illustrator 18.0.0, SVG Export Plug-In . SVG Version: 6.00 Build 0)  -->
<!DOCTYPE svg PUBLIC "-//W3C//DTD SVG 1.1//EN" "http://www.w3.org/Graphics/SVG/1.1/DTD/svg11.dtd">
<svg version="1.1" xmlns="http://www.w3.org/2000/svg" xmlns:xlink="http://www.w3.org/1999/xlink" x="0px" y="0px" width="512px"
	 height="512px" viewBox="0 0 512 512" enable-background="new 0 0 512 512" xml:space="preserve">
<g id="white_block">
	<rect opacity="0" fill="#FFFFFF" width="512" height="512"/>
</g>
<g id="Logos">
	<g>
		<path fill="#E03A3E" d="M256,463.5c-114.4,0-207.5-93.1-207.5-207.5c0-114.4,93.1-207.5,207.5-207.5
			c114.4,0,207.5,93.1,207.5,207.5C463.5,370.4,370.4,463.5,256,463.5z"/>
		<path fill="#FFFFFF" d="M256,453.9c-109.1,0-197.9-88.8-197.9-197.9c0-109.1,88.8-197.9,197.9-197.9
			c109.1,0,197.9,88.8,197.9,197.9C453.9,365.1,365.1,453.9,256,453.9z"/>
		<path fill="#E03A3E" d="M256,444.3c-103.9,0-188.3-84.5-188.3-188.3c0-103.9,84.5-188.3,188.3-188.3S444.3,152.1,444.3,256
			C444.3,359.9,359.9,444.3,256,444.3z"/>
		<g>
			<polygon fill="#FFFFFF" points="188.8,96.8 192.4,104.9 182.2,99.8 176.5,102.3 188.3,128.8 194,126.3 186.5,109.5 196.9,115.1 
				200.6,123.4 206.2,120.9 194.4,94.3 			"/>
			<polygon fill="#FFFFFF" points="312,92.4 307.7,106 300.8,103.8 305.1,90.2 299.3,88.3 294.9,102 292.9,101.3 293.8,105.4 
				290.4,116 296.3,117.9 299.1,109.1 306,111.3 303.2,120.1 309.1,122 317.9,94.3 			"/>
			<path fill="#FFFFFF" d="M408.6,173.4c-1.1-1.7-2.2-3.5-3.3-5.2c-3.5,1.9-8.8,4.3-13.4,5.6l-2.5-3.9l12.1-7.7l-3.3-5.2l-12.1,7.7
				l-1.1-1.8l-1.9,3.7l-9.4,6l3.3,5.2l7.8-5l2.9,4.5c-2.2,2.6-5.5,5.4-6.8,6.5c1.1,1.7,2.2,3.5,3.3,5.2c1.9-1.5,7.7-6.6,8.8-9.6
				C397.9,178.6,404.5,175.6,408.6,173.4z"/>
			<path fill="#FFFFFF" d="M416.2,190.6c-5,0-8.2,1.4-12.4,3l-1.7,15.2c-1.2,0.4-2.4,0.7-3.7,0.9l-2.5-6.4l2.1-0.8l-2.2-5.8
				l-7.3,2.8c0,0,6.2,16,6.5,16.7c5.3-0.1,8.7-1.6,13.2-3.3l0,0h0l1.4-15.1c1.1-0.3,2.1-0.6,3.2-0.8l2.5,6.4l-2.1,0.8l2.2,5.8
				l7.3-2.8C422.7,207.2,416.7,191.6,416.2,190.6z"/>
			<polygon fill="#FFFFFF" points="103.4,173.9 108.2,176.8 111.7,171 131.8,183.2 135,178 114.9,165.7 118.4,160 113.6,157.1 			
				"/>
			<polygon fill="#FFFFFF" points="210.2,88.9 211.4,94.3 218,92.8 223.2,115.8 229.3,114.4 224,91.5 230.6,90 229.4,84.6 			"/>
			<polygon fill="#FFFFFF" points="127.8,139.9 123.6,144.5 145.2,164 155.2,152.9 151.1,149.2 145.2,155.7 			"/>
			<path fill="#FFFFFF" d="M124.4,196.7l-13.3-4.8c-4.7-1.6-9.9-2.2-15.3-1.8c-0.1,0.1-4.1,11.2-4.2,11.7c3.7,3.7,7.9,6.5,12.3,8.2
				l-0.7,2l4.1-0.8l10.4,3.8l2.1-5.8l-8.6-3.1l2.5-6.8l8.6,3.1L124.4,196.7z M98.2,199.9l1.5-4c3.1,0.2,6,0.7,8.8,1.6l-2.4,6.8
				C103.3,203.2,100.7,201.7,98.2,199.9z"/>
			<path fill="#FFFFFF" d="M336.5,136.5l7.1-12.2c2.4-4.3,4-9.3,4.5-14.7c-0.1-0.1-10.3-6-10.8-6.3c-4.3,3-7.8,6.6-10.3,10.7
				l-1.9-1.1l0,4.2l-5.6,9.6l5.3,3.1l4.6-7.9l6.2,3.6l-4.6,7.9L336.5,136.5z M338.1,110.1l3.7,2.2c-0.7,3-1.8,5.8-3.2,8.4l-6.2-3.6
				C333.9,114.5,335.8,112.2,338.1,110.1z"/>
			<path fill="#FFFFFF" d="M177.5,134.8l-8.6-11.2c-3-3.9-7.1-7.2-11.9-9.7c-0.1,0.1-9.5,7.2-9.9,7.6c1.1,5.1,3.2,9.7,5.9,13.6
				l-1.7,1.3l3.9,1.6l6.7,8.8l4.9-3.8l-5.6-7.3l5.7-4.4l5.6,7.3L177.5,134.8z M153.7,123.3l3.4-2.6c2.5,1.8,4.7,3.9,6.5,6.2
				l-5.7,4.4C156.2,128.9,154.8,126.2,153.7,123.3z"/>
			<path fill="#FFFFFF" d="M249.8,112.2l-0.1-9.2l7.2-0.1l0.1,9.2l6.2-0.1l-0.1-11.1l2.1-3.7l-2.2,0c-0.2-4.8-1.4-9.6-3.7-14.3
				c-0.6,0-12.3,0.1-12.5,0.1c-2.2,4.9-3.4,10.1-3.4,15l0.1,14.1L249.8,112.2z M256.8,97.4l-7.2,0.1c0.1-2.9,0.5-5.9,1.3-8.9l4.3,0
				C256.1,91.5,256.7,94.5,256.8,97.4z"/>
			<path fill="#FFFFFF" d="M383.1,138.7l-9.4,9.6c-2.3,2.4-5,4.5-8.1,6.2l-1.8-1.8c1.5-3.1,3.4-6,5.6-8.4l9.6-9.8l-4.4-4.3l-9.4,9.7
				c-2.4,2.3-5.2,4.3-8.4,5.9l-1.8-1.8c1.6-3.1,3.7-5.9,6-8.2l9.4-9.6l-4.4-4.3l-9.8,10c-3.4,3.6-6.2,8.1-8,13.2
				c0.1,0.1,7.1,7,7.5,7.3c0.8-0.3,1.7-0.6,2.5-0.9c-0.3,0.8-0.6,1.7-0.9,2.5c0.4,0.4,7.4,7.2,7.5,7.3c5.1-1.9,9.6-4.7,13-8.3
				l9.8-10L383.1,138.7z"/>
			<path fill="#FFFFFF" d="M134.5,333.9c-4.8,1.3-7.6,3.5-11.2,6.2l2.4,15.1c-1.1,0.7-2.2,1.3-3.3,1.9l-4.1-5.5l1.8-1.4l-3.7-4.9
				l-6.2,4.7c0,0,10.3,13.7,10.8,14.3c5.1-1.5,8-3.8,11.8-6.7l0,0l0,0l-2.7-14.9c0.9-0.6,1.9-1.1,2.9-1.6l4.1,5.5l-1.8,1.4l3.7,4.9
				l6.2-4.7C145.3,348.2,135.2,334.8,134.5,333.9z"/>
			<polygon fill="#FFFFFF" points="200.8,389.3 199,394.5 205.4,396.7 197.7,419 203.5,421 211.2,398.7 217.6,400.9 219.4,395.7 			
				"/>
			<path fill="#FFFFFF" d="M117.3,295.1c-0.3-1.3-4-18.9-4-18.9l-11.5,2.4l-0.5-2.2l-3.2,3l-13.2,2.8c0,0,3.7,17.6,4,18.8
				c4.7-0.9,9.3-2.6,13.7-4.9C107.6,296.9,111.4,296.3,117.3,295.1z M109.1,283.4l1.4,6.7c-2.2,0.3-4.2,0.4-6.3,0.3l-1.2-5.7
				L109.1,283.4z M91.5,287.1l6.1-1.3l1.2,5.5c-1.9,0.9-3.9,1.7-5.9,2.3L91.5,287.1z"/>
			<polygon fill="#FFFFFF" points="190.3,390.5 193,385.7 176.3,376 170.4,386.3 168.4,385.1 168.5,389.7 161.8,401.3 178.6,410.9 
				181.3,406.1 169.9,399.6 173,394.1 180.1,398.2 182.8,393.4 175.8,389.3 178.9,383.9 			"/>
			<path fill="#FFFFFF" d="M371.6,374l1.5,1.7l-5.1,4.7L355.9,367l4.7-4.2c0.6,0.5,1.2,1.1,1.8,1.7l4.6-4.2
				c-2.3-2.2-4.6-4.1-6.2-5.2c-0.6,0.5-13.2,12-13.2,12l19.6,21.5l14.3-13l-5.3-5.8L371.6,374z"/>
			<polygon fill="#FFFFFF" points="295.6,394.2 289.7,395.8 297.3,423.9 311.8,420 310.3,414.6 301.8,416.9 			"/>
			<path fill="#FFFFFF" d="M102.4,335.7l12.8-5.9c4.5-2.1,8.6-5.3,12.1-9.5c-0.1-0.1-5-10.8-5.2-11.3c-5.2,0-10.2,0.9-14.5,2.8
				l-0.9-2l-2.4,3.5l-10.1,4.6l2.6,5.6l8.3-3.8l3,6.6l-8.3,3.8L102.4,335.7z M118.8,315l1.8,3.9c-2.3,2-4.8,3.7-7.4,5l-3-6.5
				C112.9,316.2,115.8,315.5,118.8,315z"/>
			<path fill="#FFFFFF" d="M246.9,399.7c-1.3-0.2-19.2-2.6-19.2-2.6l-1.6,11.7l-2.2-0.3l1.7,4l-1.8,13.4c0,0,17.8,2.4,19.1,2.6
				c0.7-4.7,0.7-9.6-0.1-14.6C245.4,409.5,246.1,405.7,246.9,399.7z M233.1,403.5l6.8,0.9c-0.4,2.1-1,4.1-1.8,6.1l-5.8-0.8
				L233.1,403.5z M230.8,421.3l0.8-6.2l5.5,0.7c0.2,2.1,0.3,4.2,0.2,6.3L230.8,421.3z"/>
			<path fill="#FFFFFF" d="M398.9,276.3c-0.3,1.3-4.2,18.9-4.2,18.9l11.5,2.5l-0.5,2.2l4.2-1.4l13.2,2.9c0,0,3.9-17.6,4.2-18.8
				c-4.6-1.1-9.6-1.5-14.6-1.2C408.4,278.6,404.7,277.6,398.9,276.3z M401.4,290.3l1.5-6.7c2.1,0.6,4,1.3,5.9,2.3l-1.3,5.7
				L401.4,290.3z M419,294.2l-6.1-1.3l1.2-5.5c2.1,0,4.3,0.1,6.3,0.3L419,294.2z"/>
			<path fill="#FFFFFF" d="M280.3,427.3l-1.4-14.1c-0.5-4.9-2.2-9.9-5-14.6c-0.2,0-11.9,1.2-12.4,1.2c-1.7,4.9-2.4,9.9-2.1,14.7
				l-2.2,0.2l2.5,3.4l1.1,11l6.1-0.6l-0.9-9.1l7.2-0.7l0.9,9.1L280.3,427.3z M266.1,405l4.3-0.4c1.2,2.9,1.9,5.8,2.3,8.7l-7.2,0.7
				C265.3,411,265.5,408,266.1,405z"/>
			<polygon fill="#FFFFFF" points="371.9,341.4 368.2,346.4 391.5,363.8 400.5,351.8 396.1,348.5 390.8,355.5 			"/>
			<polygon fill="#FFFFFF" points="319.6,384.9 314,387.6 326.8,413.8 340.2,407.2 337.8,402.2 329.9,406.1 			"/>
			<path fill="#FFFFFF" d="M388.2,313.1l12.2,5.5c3,1.3,5.9,3.2,8.6,5.5l-1.9,4.1c-3.5-0.5-6.8-1.4-9.8-2.8l-12.2-5.5l-2.5,5.6
				l12.8,5.8c4.5,2,9.7,3,15.2,3c0.1-0.1,5-11,5.2-11.6c-3.5-4.1-7.7-7.4-12.2-9.4l-12.8-5.8L388.2,313.1z"/>
			<path fill="#FFFFFF" d="M167.7,369.9c-1.5-1.4-3.1-2.8-4.6-4.1c-2.8,2.8-7.4,6.5-11.5,8.9l-3.5-3.1l9.6-10.6l-4.6-4.1l-9.6,10.6
				L142,366l-0.8,4.1l-7.5,8.3l4.6,4.1l6.2-6.9l4,3.6c-1.4,3.1-3.8,6.7-4.8,8.1c1.5,1.4,3.1,2.8,4.6,4.1c1.4-2,5.7-8.4,6-11.6
				C158.8,377.7,164.4,373.1,167.7,369.9z"/>
		</g>
		<path fill="#FFFFFF" d="M384.7,256c0,71.1-57.6,128.7-128.7,128.7c-71.1,0-128.7-57.6-128.7-128.7c0-71.1,57.6-128.7,128.7-128.7
			C327.1,127.3,384.7,184.9,384.7,256z"/>
		<g>
			<g>
				<g>
					<path fill="#E03A3E" d="M256.1,136.7c-39.4,0-74.3,19-96.2,48.3c3.2,0.9,9.2,2.6,16.7,4.8l0,0c11.8,3.5,50.8,14.9,58.1,17.2
						c21.3,6.8,26.9,9.5,32.9,15.9c6,6.4,15.1,13.9,24,20.1c8.9,6.2,13.2,13,13.2,23.8c0,10.8-8.3,19.8-13.4,23c0,0,1.9-5.2-0.6-7.4
						c-2.5-2.3-10.3-6.6-30.4-5.2c-20.1,1.5-47,11.2-65.2,20.9c0,0,8.7-13.7,21.7-19.9c0,0-10.8,0-70.8,26.2
						c18.4,42.5,60.8,72.3,110.1,72.3c66.3,0,120-53.7,120-120C376,190.4,322.3,136.7,256.1,136.7z M256.1,350.2
						c-26.2,0-49.9-10.8-66.8-28.1c48.4-25,78.6-18.5,78.6-13.7c0,5-7.4,16.5-7.4,16.5c39.5-5.6,68.3-29.4,68.3-61.4
						c0-32.1-30-47.6-37.7-52.3c-8.2-5.1-4.3-12-31.2-22.1c-16.4-6.2-39.3-12.2-48.3-14.5c13.3-7.2,28.4-11.3,44.6-11.3
						c51.6,0,93.5,41.9,93.5,93.5C349.6,308.3,307.7,350.2,256.1,350.2z"/>
					<path fill="#E03A3E" d="M255,225.5c0,0-6.8,0.6-13.9-2.9c-7-3.5-17.8-11.4-27.1-2.7c0,0,7.9-1,7.2,1
						c-0.6,2.1-1.4,14.1,9.3,18.6C241.4,244.1,253.8,240.8,255,225.5z"/>
				</g>
			</g>
		</g>
	</g>
</g>
</svg>
