<?xml version="1.0" encoding="utf-8"?>
<!-- Generator: Adobe Illustrator 18.0.0, SVG Export Plug-In . SVG Version: 6.00 Build 0)  -->
<!DOCTYPE svg PUBLIC "-//W3C//DTD SVG 1.1//EN" "http://www.w3.org/Graphics/SVG/1.1/DTD/svg11.dtd">
<svg version="1.1" xmlns="http://www.w3.org/2000/svg" xmlns:xlink="http://www.w3.org/1999/xlink" x="0px" y="0px" width="512px"
	 height="512px" viewBox="0 0 512 512" enable-background="new 0 0 512 512" xml:space="preserve">
<g id="white_block">
	<rect opacity="0" fill="#FFFFFF" width="512" height="512"/>
</g>
<g id="Logos">
	<g>
		<g>
			<path fill="#FFFFFF" d="M459.5,242.5c0-54.3-21.2-105.4-59.6-143.9C366.7,65.5,324,45.2,278,40.2c-1.1-1.1-2.3-2-3.6-2.9
				c-16.3-10.5-29.9-2.7-39.3,1.9c-0.7,0.3-1.5,0.7-2.4,1.2c-17.7,2-34.8,6.4-50.9,12.7c-1.9-2.8-4.1-5.5-6.6-8
				c-9.8-9.8-22.9-15.2-36.8-15.2c-28.7,0-52.1,23.4-52.1,52.1c0,12,4.1,23.4,11.5,32.7c-28.4,35-45.4,79.5-45.4,128
				c0,54.3,21.2,105.4,59.6,143.9c18.8,18.8,40.6,33.4,64.3,43.5c-1.3,10.8,0.4,18,2.4,21c-3,2.5-4.2,4.1-4.7,6.9
				c-4.7,6.4,6.8,14.6,11.5,18.2c9.7,7.4,14.8,6.1,22.3,5.8c9.3-0.4,18.1-11.3,23.1-18.4c10.1-1.4,11.9,0.2,12.3,1.4
				c3.1-0.5,7.5-1.3,13.5-3.8c13.6-5.7,9.7-12.7,8.3-14c-0.4-0.3-0.7-0.8-1-1.3c32.3-1.3,63.2-10,90.8-25.4c1,1.1,2,2.3,3,3.8
				c3,4.4,4.6,18.7,5.2,26.1c0.6,7.4,1.9,12.4,5.5,24.1c3.6,11.6,5,3.2,5.2,0c0.2-3.1,0.8-14.5,0.3-22.6c-0.5-8.2-0.6-20,0.9-25
				c1.6-5-1.3-6.3-2-7.2c-0.8-0.9,0-1.3-2-7.7c-0.1-0.4-0.2-0.7-0.3-1.1c10.3-7.1,20.1-15.2,29.2-24.3
				C438.3,348,459.5,296.9,459.5,242.5z"/>
			<path fill="#061922" d="M459.5,242.5c0-54.3-21.2-105.4-59.6-143.9C366.7,65.5,324,45.2,278,40.2c-1.1-1.1-2.3-2-3.6-2.9
				c-16.3-10.5-29.9-2.7-39.3,1.9c-0.7,0.3-1.5,0.7-2.4,1.2c-17.7,2-34.8,6.4-50.9,12.7c-1.9-2.8-4.1-5.5-6.6-8
				c-9.8-9.8-22.9-15.2-36.8-15.2c-28.7,0-52.1,23.4-52.1,52.1c0,12,4.1,23.4,11.5,32.7c-28.4,35-45.4,79.5-45.4,128
				c0,54.3,21.2,105.4,59.6,143.9c18.8,18.8,40.6,33.4,64.3,43.5c-1.3,10.8,0.4,18,2.4,21c-3,2.5-4.2,4.1-4.7,6.9
				c-4.7,6.4,6.8,14.6,11.5,18.2c9.7,7.4,14.8,6.1,22.3,5.8c9.3-0.4,18.1-11.3,23.1-18.4c10.1-1.4,11.9,0.2,12.3,1.4
				c3.1-0.5,7.5-1.3,13.5-3.8c13.6-5.7,9.7-12.7,8.3-14c-0.4-0.3-0.7-0.8-1-1.3c32.3-1.3,63.2-10,90.8-25.4c1,1.1,2,2.3,3,3.8
				c3,4.4,4.6,18.7,5.2,26.1c0.6,7.4,1.9,12.4,5.5,24.1c3.6,11.6,5,3.2,5.2,0c0.2-3.1,0.8-14.5,0.3-22.6c-0.5-8.2-0.6-20,0.9-25
				c1.6-5-1.3-6.3-2-7.2c-0.8-0.9,0-1.3-2-7.7c-0.1-0.4-0.2-0.7-0.3-1.1c10.3-7.1,20.1-15.2,29.2-24.3
				C438.3,348,459.5,296.9,459.5,242.5z"/>
			<g>
				<path fill="#008348" d="M207.9,432.4c7.6-0.3,18.1-2.7,22.9-4.7c0.6,0.2,1.7,0.8,3.2,1.4c0.6-5-2.6-15.5-4.4-20.3
					c-1.2-3.2-2.4-5.3-3.8-8.6c-4.2-0.8-9.5-3.1-13.3-4.6c0,3,0.5,10.8,1.2,16c-1.6,0.2-3.8,0.3-6.5,0.3
					C207.6,417.4,208.2,427.6,207.9,432.4z"/>
				<path fill="#008348" d="M350.2,415.7c-1.4-1.4,1.7-5.8,3.1-14c1.4-8.2,1.6-21.9-4.4-29.6c-2.9-3.8-4.3-6.1-4.8-7.8
					c-18.6,13.5-40,22.5-62.7,26.4c-0.3,0.5-0.5,0.9-0.8,1.2c-3.3,4.2-9.7,10.4-14.5,12.9c-4.7,2.5-10.2,4.4-13.2,5.4
					c-0.6,5-1.4,16.3-0.2,20.1c0.5,1.4,6.3,4.9,8.3,8.7c0.2,0.4,0.4,0.8,0.6,1.2c32.1-0.9,62.3-9.5,88.8-24.1
					C350.5,415.9,350.3,415.8,350.2,415.7z"/>
				<path fill="#008348" d="M395.8,102.7c-31-31-70.5-50.4-113.2-56.1c3.4,6.8,4,14.6,4.3,19.5c6.1-2.7,10.8-4.1,13.4-8.2
					c2.5-4.1,6-3.3,8.2-0.3c2.2,3,2.2,6.8-3.6,10.4c-5.8,3.6-10.1,5.4-11.3,6c-1.3,0.6-0.2,1.7,1.3,4.1c1.4,2.4,5,8.2,5.7,20.4
					c0,0.1,0,0.2,0,0.4c23.1,7.1,44.3,19.8,61.9,37.4c28.4,28.4,44,66.1,44,106.3c0,23.1-5.2,45.3-14.9,65.5
					c1.3,0.7,3.1,5.2,3.7,11.3c0.3,3.1,0.2,6.6-0.8,8.8c-0.9,2.2-8.4,13.3-12.1,16.7c-1.4,1.3-4.7,1.1-6.1-0.9
					c-1.4-2-1.6-0.9-2.7,0.2c-1.1,1.1-4.9,6.6-5.8,8c-0.9,1.4-4.1,2.8-2,8.5c2,5.7,4.4,9.9,3.6,13.1c-0.8,3.1-1.1,4.1,3.1,7.7
					c4.3,3.6,4.1,8,2.2,10.8c-1.2,1.8-3,6.5-3.8,11.4c50.2-35.9,83-94.7,83-161C453.7,189.7,433.1,140.1,395.8,102.7z"/>
				<path fill="#008348" d="M168.7,388.5c-0.6-5.3-1.4-15,2.4-21.8c-7.6-5.2-14.8-11.2-21.4-17.8c-28.4-28.4-44-66.1-44-106.3
					c0-43,18.1-81.8,47.2-109.2c0.3-0.6,0.6-1.1,1-1.7c-4.9,1.5-10.1,2.3-15.4,2.3c-13.9,0-26.9-5.4-36.7-15.1
					c-28.2,35-43.5,78.2-43.5,123.7c0,52.8,20.6,102.5,57.9,139.8c17.9,17.9,38.6,31.9,61.2,41.7c0.9-4.2,2.2-8.8,4.1-13.8
					c1.7-4.6-0.9-15.1-5.3-20.6C173.8,389,170.8,388.6,168.7,388.5z"/>
				<path fill="#008348" d="M221.2,47.9c-12.5,2.2-24.7,5.6-36.4,10.1c3.8,7.3,5.8,15.4,5.8,23.9c0,11.2-3.5,21.9-10,30.7
					c10.9-6.3,22.6-11.4,35-14.8c0.8-0.8,1.6-1.5,2.4-2.2c-4.6-7.6-10.7-19.7-5.3-36C214.1,54.9,217.4,51,221.2,47.9z"/>
			</g>
			<g>
				<path fill="#FFFFFF" d="M300.2,107.5c4.4,2.2,9.3,7,7.4,15.9c-0.8,3.6-3.8,7.1-4.1,8.5c-0.5,2.4-5.4,6.4-7,9.5
					c-1.6,3.1-1.8,5.8-1.3,7.1c0,0,0,0,0,0c2.5,2.4,8.2,5.5,11.3,6.6c2.5,0.9,2.3,1.5,1.3,3.1c1.7,0.2,2.6,1.2,4.2,3.1
					c1.7,2,6.3,0.8,9.1-0.6c2.8-1.4,6.4-1.9,9.3,1.6c2.8,3.5,7.1,9.9,9.1,15.9c2,6,4.2,10.8,4.9,11.8c0.6,0.9-2.2,18.2-3,25.2
					c-0.8,6.9-1.4,9.9-1.6,11c-0.2,1.1,4.4-3.9,4.6,2c0.1,4.8,2.3,20.1,4.9,31.4c0.7,2.9,1.3,5.5,2,7.6c1.9,0.3,3.5,4.1,4.6,9.9
					c1.1,5.8,3.5,9.4,3.6,12.3c0.2,2.8,0.9,3.3,1.9,3.8c0.9,0.5,0.6,1.9-2.2,5.2c0.6,0.5,1.6,1.4,2.2,2c0.8-0.8,3-3.3,3-3.3
					s8.7,3.5,10.5,4.1c1.9,0.6,4.1-4,9.7-1.6c1.5,0.7,3.2,2.8,4.4,4.9c8.8-18.8,13.7-39.8,13.7-62c0-39.2-15.3-76.1-43-103.8
					c-16.9-16.9-37.3-29.2-59.4-36.2C300.3,104.7,300.2,106.7,300.2,107.5z"/>
				<path fill="#FFFFFF" d="M345.6,354.8c-2.2-1.1-3.6,0.5-4.7-8.2c-0.3-2.5-2.4-5.8-3.9-7.4c-1.6-1.6-1.8-4.5-0.9-7.1
					c1.3-3.9,1.6-7.5,1.4-10.7c-0.2-3.1,0.5-7.1,4.9-9c-1.6-1.7-2.4-3.9-2.8-5.7c-6.4-2.1-7.7-2.3-9-5.4c-2.2-5.2-3.6-12.9-4.2-17.1
					c-0.3-2.1-0.5-4-0.6-5.7c-2.1-3.9-6.7-12.6-10.2-19.1c-1.3-2.4-2.5-4.6-3.3-6.1c-3.1-5.5,0-12.7,1.6-17c1.6-4.2,2.8-8,1.4-12.3
					c-1.4-4.2-1.4-5.2-1.7-6.9c-0.3-1.7-1.7-3.9-3.6,2c-1.9,6-5.5,14.8-7.6,23.9c-1.2,5.2-2,10.8-1.7,16.3c0.2,4.2,1,8.2,2.8,11.9
					c4.1,8.5,9,16.4,8.3,21.1c-0.6,4.7-1.7,4.9-1.7,5.7c-0.8,9.1-4.7,26.6-6.8,31.6c-2,5-10.1,23.3-11.8,31c-1.3,5.9-5,18.5-8.1,26
					c23.5-4.5,45.1-14.5,63.2-28.8C347.1,356.7,347,355.5,345.6,354.8z"/>
				<path fill="#FFFFFF" d="M170.9,148.5c1.7,2.3,4,4.3,7,5.9c7.7,3.9,9.3,6.8,9.3,13.5c0,6.8,1.3,20.6,3.5,23
					c1.4-1.4,3-3.5,3.3-4.1c2.2,4.1,6.6,11.7,13.7,16.4c0.5,0.3,0.3,2.1,1.4,2.4c2.4,0.6,17.6,3,18.1,6.1c3.1-3.1,8.2-11,9.1-13.7
					c0.9-2.7,6.4-11.2,10.5-15.9c0-1.9,0-3,0.2-3.5c-1.1,0.9-2.8,3.3-5.4,4.4c-2.5,1.1-11.3,4.9-17.6,8c-2.2,1.1-6.1,2.4-7.7-9.1
					c-1.6-11.5,0-17.5,1.1-20.1c1.1-2.7,3.1-5,7.1-3.9c3.9,1.1,10.2,3.5,11.9,3.5c0.3-1.3,1.4-3.6-2.8-4.1c-3-0.3-10.9-2.6-15.4-8.7
					c-1.8-2.4-3.1-5.5-3.2-9.4c-9,1.4-29.6,4.1-34.1,5.2c-4.6,1.1-8.4,2-9.9-8.3c-0.6-4.4-1.7-10.5,1.4-8.3c2.5-1.9,6-4.1,12.1-3.1
					c1.1,0.2,2.5,1.1,3,2c0.3,1.5-0.3,4-1.1,6.3c-1.4,4.2-4,7.2,4.6,5.3c9-2.1,20.4-3.8,23.4-4.4c0.4-3.1,2.9-7.8,5.9-11.2
					c3-3.5,3.5-6.3,3.6-7.4c0.2-1.1-0.9-1.3-2.4,0c-1.7,1.6-6.9,4.7-11.8,3.5c-1.9-0.5-4.2-4.1-5.5-6.1c1-2.2,3.6-5.9,6.8-9.7
					c-16.7,5.4-32.4,13.7-46.4,24.9c-0.1,1.7,0.1,5.8,1.3,10.3C166.7,140.8,168.1,144.9,170.9,148.5z"/>
				<path fill="#FFFFFF" d="M181.8,363.3c6.4-2.5,11.5-2.4,16.5,4.2c1.4,1.9,2.5,7.4,14.6,2.5c-6.4-7.7-10.3-16.8-13.8-29.1
					c-5.6-19.4-18.2-41.4-13.5-51.4c-2.7-2.5-5.8-12.3-9.1-11.2c-2.2,0.7-5.3,0.8-2.8-6.6c1.1-3.3,3-7.4,6.5-12.2
					c4.3-5.9,11.1-13,22.1-21.5c0.9-0.8,1.1-1.4,0.5-2c-1.1-1.1-2.2-2.4-3.3-3c-1.1-0.6-2.2-0.3-3.1,0.6c-0.9,0.9-2.5,2-3.5,2.7
					c-0.9,0.6-8.5-6.8-12.4-12.1c-3.9-5.3-8-7.1-9.3-7.7c1.6-1.7,5.1-5.5,3.8-5c-2.4,0.8-6.5,1.3-10.7-3.1c-5.2-5.5-3.1-8.3-4.2-9.1
					c-1.1-0.8-6.8,0.5-11-6.1c-4.2-6.6-5.9-9.5-2.5-14.2c1.7-2.4,2.4-3.5,1.9-6.4c-0.5-3,0-4.9,3.9-8.7c3.9-3.8,6.3-7.2,8-6.9
					c1.4,0.3-2.6-4.7-5-8.5c-0.6-1-1.1-1.9-1.4-2.6c-0.6-1.5-1.6-4.1-1.8-7c-27.6,27.7-42.8,64.5-42.8,103.7
					c0,39.2,15.3,76.1,43,103.8c6.5,6.5,13.5,12.3,20.9,17.4C176.3,360.3,180.1,361.7,181.8,363.3z"/>
			</g>
			<g>
				<path fill="#A73832" d="M98.2,53.2c12.9,3.3,22.6,13.7,26.8,19.5c1.1,1.5,2.2,1.3,2.7,0.2c1-2.3,2.8-9.9,2.8-15.7
					c0-13.2,1.8-18.4,5.1-24.6C120.2,33.4,106.7,41.4,98.2,53.2z"/>
				<path fill="#A73832" d="M90.4,93.6c24.2,2.2,31.7-11.3,33.3-13.4c1.6-2-0.3-3.3-1.1-4.4c-4.2-5.9-13.6-16.2-26.5-19.5
					C91.7,63.8,89,72.5,89,81.9C89,85.9,89.5,89.9,90.4,93.6z"/>
				<path fill="#A73832" d="M186.5,92.7c-10.2-4.2-22.3-0.3-31,7.2c-8.6,7.5-13,13.3-16,31.3c-0.4,0-0.7,0-1.1,0
					c-12.8,0-24.4-4.9-33.2-12.9c14.8-3.8,27.2-10.5,41.2-23.7c14-13.2,20.9-28.6,22.8-35.9c1.9-7.2-0.8-3-2.2,0.3
					c-2.2,5.1-9.4,18.9-23.7,32.2c-14.3,13.4-25.3,20-40.2,25c-5-5.1-8.8-11.3-11.2-18.2c5,0.3,20.9-1.5,28.8-8
					c10.4-8.6,11.6-18.7,13.1-33.2c1.4-14.5,3.5-18.8,7-24.3c26.2,1.2,47.1,22.8,47.1,49.3C187.7,85.6,187.3,89.2,186.5,92.7z"/>
				<path fill="#A73832" d="M185.2,97.6c-2.4-3.3-10.8-4.9-24.1,3.5c-1.3,0.8-2.1,1.3-0.6,2.8c2.8,2.8,7.1,8.2,10.1,15.4
					C177.1,113.6,182.3,106.2,185.2,97.6z"/>
				<path fill="#A73832" d="M166.5,122.4c-2.8-6.9-5.2-11.9-7.9-15.4c-1.4-1.9-1.7-2.7-4.4-0.3c-7.4,6.6-10.3,16.5-11.9,24.4
					C151.3,130.3,159.6,127.2,166.5,122.4z"/>
			</g>
			<g>
				<path fill="#FAB383" d="M153,177.6c-2-0.6-3.6,1.7-4.6,3.6c-0.9,1.9-2,3.9,0.9,8.2c3,4.2,4.8,6.8,10.1,6.4
					c2.5-0.2,4.7-2,5.5-3.1c0.8-1.1,0.9,0.8-0.3,2.7c-1.3,1.9-2.2,6.3,0.2,9.3c2.4,3,7.2,5.5,13.7,1.7c6.4-3.8,9.1-8.3,10.2-10.4
					c1.1-2,1.1-3,0-4.2c-1.1-1.3-4.7-7.2-5.5-19c-0.5-7.1,0.8-11.6-3.6-14.2c-4.4-2.5-14.5-8.5-15.7-20.1c-0.5-4.4-0.2-11.2-4.6-7.5
					c-4.4,3.6-4.4,6.1-4.9,8.8c-0.5,2.7,1.7,6.3,3.6,8.8c1.9,2.5,4.1,8,5.8,9.4c1.7,1.4,2.8,2.5,4.2,2.7c1.4,0.2,7.1,0.2,8.5,0.6
					c1.4,0.5,2.2,2.2-1.3,2.2c-3.5,0-8.8,0.9-11.2,1.3c-2.4,0.3-4.6,0.5-5.7,5.2c-1.1,4.7-2.7,10.2-2.8,12c-0.2,1.7-1.1,2.7-1.1,3.6
					c0,0.9,1.9,5.5,6.1,0.9c4.2-4.6,6-9.1,6.8-11.3c0.8-2.2,1.7-1.9,0.9,1.6c-0.8,3.5-1,12.1,0.6,15.1c1.8,3.2,5.4,6.5,9.9,4.2
					c0.9-0.5,2.5-1.3,3.8-1.1c1.3,0.2-0.2,2.4-1.3,3.3c-1.1,0.9-4.7,4.9-11.1-0.8c-1.6-1.4-3.8-4.6-4.2-8.5
					c-0.2-1.3-1.9-1.7-2.7-0.6c-0.8,1.1-5,5-8,2.2c-3-2.8-4.2-4.4-2.5-10.4C153.2,179,153.8,177.8,153,177.6z"/>
				<path fill="#FAB383" d="M156.2,168.8c-0.7,2-1.3,4.7-1.6,5.7c-0.3,0.9-1.7,3-3,0.3c-1.3-2.7-1.2-4.8,0.8-6.8
					c0.6-0.6,1.6-1.9,2.2-1.3C155.2,167.4,156.3,168.3,156.2,168.8z"/>
				<path fill="#FAB383" d="M163.2,161.6c-1.3,0.6-4.1,0.6-5,2.8c-0.6,1.4-3.1-0.2-1.9-1.9c1.3-1.7,2.2-1.6,3-2
					c0.8-0.5,1.1-1.9,2.7-1.1C163.5,160.2,163.9,161.3,163.2,161.6z"/>
			</g>
			<g>
				<path fill="#FAB383" d="M266.9,83.7c-4.4,0.5-8.5,3.1-12.6,6c-4.1,2.8-18.9,15.3-22.3,17.8c3.6,1.9,4.6,5.7,3.3,12
					c-0.3,1.4,0,1.9,0.9,0.9c0.9-0.9,5.3-5.7,5.2-9.4c-0.2-3.8-1.9-6-2.2-6.4c-0.3-0.5,1.3-2.4,3,1.6c1.7,3.9,1.3,9.4-3.9,15.6
					c-5.2,6.1-9.3,6-11.5,7.1c-2.2,1.1-4.4,2.8-2.4,6.1c2,3.3,6,2,7.5,0.9c1.6-1.1,3.8-2.4,8.8-1.9c5,0.5,6.7-2.7,3.3-6.1
					c-1.1-1.1-3.9-3.6-0.5-3.6c2,0,4.6,4.6,6,5.8c1.4,1.3,4.6,1.7,8.8,2c4.2,0.3,10.9,1.9,10.9,6c0,2.5-1.4,3.2-3.1,1.3
					c-0.7-0.8-1.7,0.5-2.5,1.3c-2.7,2.7-9.5,9.9-14.4,11.2c-4.9,1.3-6.7-0.2-13.1-3.6c-6.4-3.5-12.4-6.9-14.2-8
					c-1.7-1.1-5.4-3.6-3.6,1.4c1.7,5,6,10.2,14.5,13.1c8.5,2.8,9.7,3.8,11.6,4.7c1.9,0.9,0.8,1.9-1.7,1.6c-2.2-0.3-4.6-2.2-2.7,2
					c1.9,4.2,4.7,8.8,13.4,7.7c8.6-1.1,8.9-2.9,14.3-12c0.9-1.6,1.9-0.5,1.3,3.6c4.2-2,6.6-2.7,9.1-3.3c2.5-0.6,9.1-2.8,13.4-10.9
					c2.2-4.1,3.4-5.5,3-9.7c-0.1-1.6,2.2-4.7,4.6-6.9c2.4-2.2,8.8-10.5,5.5-16.5c-3.3-6-8.8-3-11.5,1.4c-2.7,4.4-5.7,9.3-5.8,16.8
					c-1.9-0.6-3.8,0.1-4.7,1.6c-0.5,0.8-7.4-0.2-9.8,0.5c-2.4,0.6-3.1-0.8-0.6-4.1c2.5-3.3,11.4-15.3,10.8-24.2
					c-0.2-2.7,0.2-3.2,0.6-5.2c0.6-2.6,0.8-2.6-2.4-4.4c-2.1-1.1-2.2-4.4-2.6-6.9c-0.4-2.7-0.9-2.7-3.9-2
					C272.3,88.8,268.6,86.6,266.9,83.7z"/>
				<path fill="#FAB383" d="M248.5,132.9c-0.9,2-3.2,3.8-8.7,3.2c-2.8-0.3-5.4-0.4-5.9,1.8c-0.3,1.5-1.6,1.4-3.3,1.3
					c-1.8-0.1-3.8-0.6-3.9,0.1c-0.1,0.6,7.7,5.3,10.3,6.4c2.6,1.2,6.4,4,9.4,3.7c4.1-0.4,7.6-2.4,13.7-8.8c2.5-2.6,4.5-4,2.1-5.1
					c-1.6-0.7-3.2-0.9-5.3-0.9C254.7,134.7,250.2,134.4,248.5,132.9z"/>
				<path fill="#FAB383" d="M219.1,133c-2.1-0.1-2.4-1.7-0.9-4c1.4-2.4,2.8-4.6,4.6-6c0.3,1,0.9,2.3,1.9,2.8c-1.3,1.3-2.9,3-2.6,6.3
					L219.1,133z"/>
			</g>
			<g>
				<g>
					<path fill="#061922" d="M267,123.3c-2.7,0-6.7-0.9-9.6-2.8c-2.9-2-3.9-2.9-3.4-5.9c0.3-1.8,0.5-2.8,0.6-3.5
						c0.1-0.5,0.1-0.8,0.2-1.2c0.2-1.4,0.2-2.3-0.2-2.8c-0.2-0.3-0.5-0.4-0.9-0.4c-0.6,0-1.4,0.4-2.4,1.2c-1.7-1.2-3.2-2.6-4.4-3.7
						c-0.9-0.8-1.6-1.4-2-1.7c-0.3-0.2-0.7-0.6-0.8-1c0-0.3,0.1-0.7,0.5-1c0.2-0.2,0.5-0.3,0.9-0.3l0.2,0l0.2,0c0.3,0,0.8,0,1.2-0.4
						c0.3-0.4,0.4-1,0.3-2.1c0-0.1,0.1-0.2,0.8-0.2c0.2,0,0.4,0,0.6,0c0.2,0,0.4,0,0.6,0c0.4,0,0.7,0,0.8-0.1
						c0.4-0.2,0.4-0.5,0.5-0.8c0.1-0.3,0.1-0.5,0.7-0.5c0.3,0,0.7,0.1,1.2,0.2c0.1,0,0.2,0,0.3,0c0.5,0,0.8-0.4,0.9-0.7l0.1-0.1
						c0.2-0.3,0.4-0.5,0.8-0.5c0.1,0,0.2,0,0.3,0c0.4,0.1,0.8,0.2,1.1,0.2c0.5,0.1,0.9,0.2,1.2,0.2c0.9,0,1.2-0.7,1.4-1.2
						c0.3-1.1,0.5-1.4,0.9-1.4c0.4,0,0.9,0.2,1.7,0.7c0.6,0.4,1.2,0.6,1.7,0.6c0.7,0,1.2-0.5,1.4-1.3c0,0,0-0.1,0.2-0.1
						c0.5,0,1.3,0.3,2.2,0.8l0.4,0.2c1.5,0.8,4.5,2.6,8,6.7c0.8,0.9,1,1.6,1,1.8c0,0,0,0-0.1,0c-0.1,0-0.1,0-0.2,0
						c-0.5,0.1-1.3,0.2-1.5,1.6c-0.1,0.7-0.3,1.2-0.4,1.2c0,0-0.1-0.1-0.3-0.4c-0.2-0.4-0.5-0.9-1-0.9c-0.1,0-0.2,0-0.2,0
						c0-0.1-0.1-0.2-0.2-0.4c-0.1-0.2-0.3-0.8-0.9-0.8c-0.3,0-0.5,0.2-0.7,0.3c0,0-0.1,0-0.1,0.1c-0.1-0.2-0.3-0.8-0.9-0.8
						c-0.1,0-0.3,0-0.4,0.1c0,0-0.1,0-0.1,0c0,0,0-0.1-0.1-0.2c-0.1-0.3-0.3-0.4-0.6-0.4c-0.2,0-0.5,0.1-0.7,0.2
						c-0.3,0.1-0.5,0.1-0.7,0.1c-0.1,0-0.2,0-0.2-0.1c-0.2-0.4-0.5-0.5-0.7-0.5c-0.3,0-0.5,0.1-0.8,0.3c-0.2,0.1-0.4,0.2-0.6,0.2
						c0,0-0.1,0-0.3-0.2c-0.1-0.1-0.3-0.4-0.7-0.4c-0.4,0-0.6,0.3-0.8,0.5l-0.1,0.1c-0.2,0.2-0.3,0.3-0.4,0.3c-0.1,0-0.1,0-0.2,0
						c-0.2-0.1-0.4-0.1-0.5-0.1c-0.5,0-0.8,0.4-0.9,0.6c-0.1,0.2-0.2,0.2-0.2,0.2c0,0-0.1,0-0.3-0.1c-0.2-0.1-0.4-0.1-0.5-0.1
						c-0.6,0-0.9,0.5-1.1,0.9c-0.2,0.4-0.3,0.5-0.4,0.5c0,0-0.1,0-0.1,0c-0.3-0.1-0.5-0.1-0.6-0.1c-0.9,0-1,0.8-1.1,1.6
						c0,0.1,0,0.3-0.1,0.4c-0.2,1.3-0.8,6.5-0.7,7.9c0.1,1.3,1.7,1.3,2.3,1.3c1.2,0,2.8-0.2,4.7-0.5c3.9-0.5,11-2.7,14.7-5.8
						c0.9-0.8,1.7-0.9,1.9-0.9c0.2,0,0.3,0.1,0.4,0.1c0,0.2-0.4,1.2-1.3,2c-0.1,0.1-0.2,0.2-0.3,0.3c-1.1,1-3.8,3.4-9.3,4.4
						c-5.2,1-10,1.9-11.6,1.9c-0.2,0-0.3,0-0.4,0c-0.1,0-0.2,0-0.3,0c-0.3,0-0.5,0.1-0.6,0.4c-0.1,0.3,0.1,0.6,0.4,1
						c0.5,0.4,1.2,0.7,1.9,0.7c0.2,0,0.4,0,0.6-0.1c0.2,0,0.8,0.5,1.2,0.9c1.1,1,2.8,2.6,5,2.6c2.8,0,6.9-3,8-3.9
						c0.5-0.4,1.8-1,2.5-1.3c-0.1,0.1-0.3,0.4-0.6,0.6l-0.2,0.2c-2.6,2.6-5.3,5.3-7.9,5.3C267.2,123.3,267.1,123.3,267,123.3
						L267,123.3z"/>
				</g>
				<path fill="#061922" d="M300.2,119.7c-1.8,1.3-2.8,1.7-3,3.9c-0.2,2.2-0.6,6-1.4,6.3c-1.1,0.4-0.9-2-1.3-1.3
					c-0.5,1.1-1.8,0.6-2.2-0.4c-0.2-0.4-4.1-0.4-0.9-5c2.8-4.1,5-6.3,7.1-7.2C300.5,115.2,304,117.1,300.2,119.7z"/>
			</g>
			<g>
				<path fill="#FAB383" d="M377.2,306.6c-0.7-1.8,0.6-5,4.5-2.8c3.9,2.2,6.9,4.1,4.1,12.7c-2.8,8.6-4.9,13.7-6,17.3
					c-1.1,3.6-5.3,8.2-3.9,2c1.4-6.1,2.2-13.5,1.6-17.3c-1.1-6.9,1.1-6.5,0.4-9.7C377.6,308,377.4,307.3,377.2,306.6z"/>
				<path fill="#FAB383" d="M392,314.1c1.1,3.4,2.4,11.2,0.5,14.3c-1.9,3.1-7.7,11.8-9.9,14c-2.2,2.2-3.9,1.3-2.5-1.1
					c1.4-2.4,3.3-5.5,3.3-6.6c0-1.1-0.2-2.4,1.7-6c1.9-3.6,5.2-15.7,5.5-16.7C390.9,311.1,391.7,313.2,392,314.1z"/>
				<path fill="#FAB383" d="M351.5,343.2c-0.9-2.8-1.4-6.9-3-9.3c1.3-3.5,5.4-12.8,12.4-15.6c0.8-0.3,1.3-1.1,0.9-1.7
					c-0.3-0.6,0.9-1.1,1.6,1.1c0.6,2.2,1.7,8.5,1.7,8.5c0.3,1.4-0.3,2.5-0.6,4.4c-0.3,1.9-1.1,6.1-0.6,8.3c0.5,2.2,1.3,3.8,5.7,2.8
					c2.2-0.5,2-1.1,2.7-3c0.6-1.9,2.4-7.2,3-10.2c0.6-3,0.1-10.3-0.5-12.2c-0.6-1.9,0.2-8.3-0.2-9.5c-0.5-1.3-0.8-3.1-4.7-4.4
					c-3.9-1.3-5-1.6-7.7,1.1c-2.7,2.7-3.6,3.8-4.9,5c-1.3,1.3-4.4,0.2-1.7-2.4c2.7-2.5,5.2-5,6-5.8l-0.8-2h-1.4
					c-4.3,4.3-9.9,6.8-13.7,7.6c-1.4,0.3-4.1,0.5-2.2,3c0.5,0.6,0.6,2.4,1.7,1.7c1.1-0.6,2.8-3.5,4.4-2.2c1.6,1.3-0.3,4.2-2.2,5.7
					c-1.9,1.4-3.9,2.8-5.3,3.6c-1.4,0.8-2.2,1.6-2,4.1c0.2,2.5,0.3,7.1-1.1,10.5c-1.4,3.5-0.6,4.4,0.6,6.8c1.3,2.4,3.3,4.4,3.9,8.2
					c0.6,3.8,0.9,4.7,3.5,4.4c2.5-0.3,3.5-1.4,4.4-3L351.5,343.2z"/>
			</g>
			<path fill="#A73832" d="M352.4,350.4c-1.1,1.9-3,4.9-3,7.6c0,2.7-2.7,5.5-2.4,6.8c0.3,1.3,3.8,4.6,5.8,8c2,3.5,4.7,8.6,4.7,17.3
				c0,8.7-2.8,20.4-3.1,22c-0.3,1.6-1.1,2.8,1.3,5c2.4,2.2,6.1,6.3,7.5,15.6c1.4,9.3,2.4,14.2,3,14.6c0.6,0.5,0.5,1.3,0.5,3
				c0,1.7,1.6,11.6,2.7,13.5c1.1,1.9,0.9-10.7,0.8-14.3c-0.2-3.6,0.2-20.9,0.8-23.4c0.6-2.5,1.3-5.4-0.9-8.5
				c-2.2-3.1-6-8.7-3.1-17.8c2.8-9.1,7.4-9,6-12.6c-1.4-3.6-3.9-6.1-5.8-8.2c-1.9-2-0.4-6.9-0.5-9c-0.2-3.8-3.1-4.4-3.5-8.6
				c-0.3-4.2-0.6-7.7,2.5-12c3.1-4.2-1.1-4.1-2.5-6.8c-1.4-2.7-2.2-6.2-0.9-11.8c0.6-2.8,0.3-3.6-0.5-3.9c-0.8-0.3-4.1-0.9-4.1-0.9
				l-4.9,9.8c0.8,1.9,1.1,4.7,1.1,6.6L352.4,350.4z"/>
			<g>
				<g>
					<path fill="#FFFFFF" d="M307,159.1c-3.9,5.2-9.9,18.2-12.7,26.4c-2.8,8.2-9.3,27.7-4.7,40.6c4.6,12.9,13.5,4.7,15.6-0.2
						c2-4.9,5.2-13.2,6.1-15.4c0.9-2.2,1.4-3.5,3.1,1.7c1.7,5.2,4.2,17.6,4.2,18.7c0,1.1-1.7,4.2-3.6,9.1c-1.9,4.9-3,8.3-1.1,11.3
						c1.9,3,9.3,15.7,11.6,21.2c1.4,3.3,2.7,3.9,6.4,3c3.8-0.9,12.9-4.1,15.6-5.3c2.7-1.3,1.4-3.5,0.6-6.1c-1.2-4.1-6-26.7-6-29.7
						c0-3,0.8-6.9-3.1-2.5c-1.4,1.6-3.3,0-2.8-2.2c0.5-2.2,5.2-32.9,5.5-36.6c-2.7-5.8-10.5-24.2-12.7-27.5c-2.2-3.3-3-3.5-6.3-1.7
						c-3.3,1.7-10.7,4.4-13.4-1.9c-0.5-1.1-1.3-3.6,0.6-3.9l-1.4-0.5C308.5,157.5,307.4,158.4,307,159.1z"/>
					<path fill="#FFFFFF" d="M348.2,272.1c-2.9,1.7-12.9,6-17,6.6c-4.2,0.6-3.1,1.7-2.4,4.9c0.8,3.1,3.1,12.6,4.4,15.9
						c1.3,3.3,3,3.2,6.3,3.1c5-0.2,13.5-2.4,19.7-8c-1.7-2-4.8-11.8-5.7-16C352.6,274.2,352.6,269.6,348.2,272.1z"/>
					<path fill="#FFFFFF" d="M258,181.4c-0.3,0.6-1.4,2.5-3.9,2.5c-2.5,0-4.6-0.8-6.1,1.4c-1.6,2.2-10.2,12.7-12.1,19.2
						c1.9,3.9,4.4,11,6.3,16c6.1-5.2,25.7-24.3,29.4-28c1.4-1.4,1.6-2.7-0.5-4.1c-2-1.4-9.6-6.1-10.9-6.9
						C259,180.8,258.4,180.8,258,181.4z"/>
					<path fill="#FFFFFF" d="M208.5,209.1c-1.2,4.8-3.6,13.4-7.5,20c1.6,2.5,2.8,4.7,4.7,5.5c4.4-3.1,12.7-10.9,15.1-13.7
						c2.4-2.8,5.3-7.1,5.3-8c0-0.9-1.1-1.3-2.5-0.9c-1.4,0.3-7.2-2-12.9-3.1C209.1,208.4,208.7,208.4,208.5,209.1z"/>
					<path fill="#FFFFFF" d="M205.1,204.3c-1.7-0.3-7.7-6.8-9.8-10.2c-2-3.5-2.4-3.1-3.1-0.6c-0.8,2.5-3.8,8-5.8,10.7
						c-2,2.7-7.4,9.6-8.8,11.2c-1.4,1.6,0,2.2,1.3,3.5c1.3,1.3,7.7,9.1,9.1,10.8c1.4,1.7,3,4.9,6.8,1.4c3.8-3.5,8.3-9.8,10.4-16.2
						c2-6.4,2.2-9.8,3.9-9.4l0.1-1.3l-0.5-0.8l-0.9-0.8c0.2,0.5,0.2,1-0.2,1.7C207.1,204.8,205.8,204.5,205.1,204.3z"/>
				</g>
				<g>
					<path fill="#FFFFFF" d="M301.3,59.7c-4.2,5-12.7,9.4-27,13c-14.3,3.6-28,13.7-33.8,18.6c-5.8,4.9-20.5,16.9-27.5,19.8
						c-1.9,0.8-5.9,3.4-0.8,4.1c3.8,0.5,6.4-1.7,14.6-7.7c8.2-6,14.5-10.3,20.8-16.4c5.8-5.7,16.4-11,27.7-14.2
						c11.3-3.1,26.2-8.1,30.5-12.7c2-2.2,2.2-3.3,0.3-5.2C304.1,57.1,303,57.6,301.3,59.7z"/>
					<path fill="#FFFFFF" d="M229.1,109.1c-1.2,0.7-1.7,1.4-3.1,6c-1.4,4.6-1.3,7.2-0.1,8.3c0.9,0.8,2.1,0.9,2.8,0.9
						c0.5,0,0.9,0.2,0.9-1.2c-0.1-1.3-0.2-7,4.1-9.6c0.8-0.5-0.1-3.8-2.9-3.3C229.7,110.4,230.7,108.3,229.1,109.1z"/>
				</g>
				<g>
					<path fill="#FFFFFF" d="M180.5,127.1c2.2,0,3.6,0,3.5,2.5c-0.2,2.5-1.3,6-1.4,8.3c-0.2,2.4-0.2,3.3,1.3,3.3
						c1.4,0-2,1.4-3.9,1.7c-1.9,0.3-4.8,1.4-6.3-6.6c-0.5-2.5-0.3-6.4-0.6-7.4C175,128.1,177.8,127.1,180.5,127.1z"/>
					<path fill="#FFFFFF" d="M222.3,133.8c0.6,3.2,1.4,3.1,0.8,3.6c-0.6,0.5-1.3-1.2-3.9-0.8c-2.4,0.4-22.2,3.5-23.7,3.6
						c-4.4,0.5-4.6-0.2-0.6-1.1c4.1-0.9,19-3.6,23.5-4.5L222.3,133.8z"/>
				</g>
				<g>
					<path fill="#FFFFFF" d="M198.5,374.3c2,1.3,6.9,2.7,15.3-0.8c8.3-3.5,17.6-1.1,19,4.9c1.4,6,1.5,13.7-1.1,17
						c-2.2,2.8-4.2,2.5-6.8,1.7c-4.6-1.4-15.1-6.3-18.1-7.7c-3-1.4-8-3-11.6-3c-1.4-3-1.3-8.2-0.3-10.1c0.9-1.9,0.9-3.8,1.7-3.3
						C197.4,373.5,198.5,374.3,198.5,374.3z"/>
					<path fill="#FFFFFF" d="M231.5,402.2c2,0,5.7,0.9,6.9,4.6c0.9,3,7.1,3.8,9.7,3.6c2.7-0.2,2.2,1.3,2,2.8
						c-0.2,1.6-0.6,6.3-0.6,8.2c0,1.9,0.5,8.5,0.8,9.7c0.3,1.3-0.8,1.9-2.2,2.5c-1.4,0.6-6.6,2.2-9.9-0.2c-1.7-1.2-3.8-3-1.7-3.1
						c2-0.2-2.5-17.9-3.8-21.1C231.5,406.1,227.9,402.2,231.5,402.2z"/>
					<path fill="#FFFFFF" d="M177.4,365.1c0.8,0.3,1.3,1.1,1.9,2.2c0.6,1.1,0.8,2.1-0.2,3.1c-1.7,1.9-3.8,10.5-3.5,16.7
						c-1.1-0.3-3.5-0.8-4.7-0.5c-0.5-3.5-0.2-14.3,1.4-17.8C173.9,365.4,175.5,364.4,177.4,365.1z"/>
					<path fill="#FFFFFF" d="M177.7,461c3.9,4.4,11.3,11.2,16.8,13.5c5.5,2.4,9.1,3.1,14,2.7c3.9-0.4,3.1,1.3,0,1.7
						c-3.1,0.5-10.4,0.5-15.1-2c-4.7-2.5-12.2-7.2-17-14C175.3,461.3,176.4,459.6,177.7,461z"/>
					<path fill="#FFFFFF" d="M259.6,450c-3.2,1.5-9.1,4.4-14.8,5.8c0.6,2.8,0.8,4.1,0.8,4.9c3.5,0,10.1-2.4,15.6-5.8
						c1.3-0.8,1.7-1.7,1.3-2.8C262,450.9,261.4,449.2,259.6,450z"/>
					<path fill="#FFFFFF" d="M222.4,437.1c-0.8-0.8,3.7-1.7,4.6-1.7c1.1,0.7,3.1,2.5,3.9,3.2c0.5,0.5,0.2,0.8-0.2,1.1
						c-0.5,0.3-3.2,1-4.5,1.1C224.7,439.5,222.7,437.5,222.4,437.1z"/>
					<path fill="#FFFFFF" d="M230.7,371.7c-1.3-0.9-1.1-1.4-0.5-2.4c0.6-0.9,1.3-1.6,1.9-1.9c0.6-0.3,1.6-0.5,2.7,1.1
						c1.1,1.6,7.1,11.5,8.3,14.2c1.3,2.7,2.8,0.9,2.2-0.6c-0.6-1.6-1.9-4.2-2.4-5c1.7-5.3,3.5-13.5,3.5-18.9
						c0-5.4-1.3-10.7-2.2-12.6c4.3,0.2,13.5,0,17.1-1.1c3.6-1.1,0.6-1.4-0.8-1.3c-1.4,0.2-11.6,0.1-19-0.8
						c-12.9-1.6-25.6-8.8-29.6-13.8c-0.6-0.8-4.4-0.5-1.3,2c3.1,2.5,11.2,10,23,12.1c2.7,0.5,6.9,1.3,7.5,11c0.6,9.8-0.3,16-0.3,17
						c0,0.9-0.6,1.3-1.4,0.2c-0.8-1.1-3.5-4.7-4.9-5.5c-1.4-0.8-2.4-0.6-3.6,0.3c-1.3,0.9-3.2,2.8-3.9,3.8L230.7,371.7z"/>
					<path fill="#FFFFFF" d="M205.4,402.4c-1.2,0-8.3,0.5-9.7,0c-1.5-0.5-2.5-2.3-1.4-3c1.3-0.9,3.7,0.2,6.1,0.2
						c2.4,0,5-0.6,5.7-0.2c0.6,0.4,1.5,0.2,1.5,3.2L205.4,402.4z"/>
					<path fill="#FFFFFF" d="M188.2,445.6c-2-1.3-4.4-7.1-4.9-18.7c-0.2-3.9,1.4-10.5,2.7-13.7c1.3-3.1-0.8-1.9-1.3-0.8
						c-0.5,1.1-2,5.5-2.5,8.8c-0.5,3.3-1.3,8.2,0,15.3c1.3,7.1,1.9,9.3,2.2,10.5L188.2,445.6z"/>
				</g>
			</g>
			<g>
				<path fill="#008348" d="M260.2,70c2.1,0.2,4.5,0.1,5-1.4c0.5-1.5,0.1-2.4-0.6-2.8c-0.7-0.3-1-0.2-0.7-1.7
					c0.3-1.4,1.3-1.3,1.3-3.5c-0.1-2.2-1.7-2.3-3.2-1.8c-1.5,0.5-2,1.2-3.5,3.1c-1.4,1.9-0.8-1.3-0.5-1.8c0.2-0.5,0.8-4.1-1.2-4.8
					c-1.1,0.5-2.2,1.1-3.2,1.6c-0.3,0.7-0.6,1.5-0.9,2.3c-0.8,2-1.7,0.5-2.4-0.5c0,0,0,0,0,0c-2.1,1.2-3.9,2.2-5.3,3.2
					c-0.2,0.1-0.3,0.2-0.5,0.3c0.2,1.2,1.7,2.8,2.5,3.4c1,0.7,0.4,2-0.9,2c-1.3,0-2.8-0.9-4.4,1c-1.6,1.9-0.6,3.7,0.9,3.7
					c1.5,0,2.8,0.6,3.3,2.3c0.5,1.7,1,2.4,3.1,2.7c2,0.2,3.2-1.3,3.8-2.3c0.6-0.9,1.3-2.3,2.1-2c1.3,0.5,1.1,1.8,0.7,3.3
					c1.5-0.9,3-1.7,4.6-2.5c-0.3-1.3-1-2.6-1.6-3.1C257.8,70.1,258,69.8,260.2,70z"/>
				<path fill="#008348" d="M277.7,47.2c-0.7,0.2-1.5,0.4-2.3,0.6c0.4,1.8,1.1,4.1,0.7,4.4c-0.5,0.4-2.3,0.7-3.7,1.1
					c-1.4,0.4-4.8,3.5-3.1,5.8c1.7,2.3,2.3,3.6,2.6,4.8c0.3,1.2,3.1,2.6,5.1,0.2c2-2.4,3.5-4.9,3.9-3.3c0.4,1.4,0.3,4.7,0,6.5
					c0.4-0.1,0.8-0.2,1.2-0.3C283.1,58.4,280.9,52.1,277.7,47.2z"/>
				<path fill="#008348" d="M234.5,89.5c-1.1-0.9-1.4-2.2-0.1-2.6c1.3-0.4,3.1-0.7,6.5-2.1c3.3-1.4,1.6-3.9,0.1-4.5
					c-1.5-0.6-1.7-2-1.5-3.5c0.2-1.5-0.2-3.7-3.1-2.6c-2.9,1.1-1.9,3.9-2.8,4.9c-0.9,0.9-1.3,0.6-1.2-0.8c0.2-1.4-1.1-2.4-1.8-2.7
					c-0.6-0.2-1.8-0.5-2.8-0.6c-3,2.7-5.8,5.6-7.8,8.4c0.5,1,1.6,2,2.1,2.2c0.8,0.2,2,0.8,1.9,2.4c-0.1,1.3-3.1,1.4-5,1.5
					c1.4,3.8,2.8,6.4,4.8,8.6c0.4-0.1,1-0.3,1.8-0.7c2.4-1,3.2-4.7,3.6-5.8c0.4-1.1,1.4-0.9,2.1,0.6c0.5,1,0.7,1.9,0.7,2.8
					c1.4-1.4,2.7-2.7,4.1-3.9C235.7,90.5,235.2,90,234.5,89.5z"/>
				<path fill="#008348" d="M276.3,183.4c0.5-0.1-0.8-5.7,0.2-5.9c1-0.2,1.5,3.1,3.7,2.7c2.2-0.4,2.8-2.6,2.4-5
					c-0.3-2.4,1.1-1.1,2.2-2.8c1.1-1.7-1.3-4.1-3.9-2.4c-2.7,1.6-2.2-0.5-0.8-1.4c1.4-0.9,0.4-4-2.6-3c-2.2,0.7-3.3-0.7-4.3-1.3
					c-0.8,0.3-1.6,0.6-2.4,1c-0.2,0.6,0,1.4,0.1,2.1c0.2,1,0.7,3.6-0.9,2.5c-1.4-1-3.4-1.5-3.9,0.3c-0.6,1.8,0.5,2,0.4,3.1
					c-0.2,1.1-3,1.3-1.7,3.6c1.3,2.3,3.3,1,4.6,0.2c1.3-0.9,2.6,0.2,2.1,1.3c-0.4,0.9-1.1,4-1.2,6.1c0.6,0.4,1.3,0.9,2,1.3
					C273.3,185,274.7,183.7,276.3,183.4z"/>
				<path fill="#008348" d="M233.4,178c1.2-0.3,3.5,2.1,5.5,0.7c2-1.4-0.9-2.8-0.5-4c0.4-1.2,1.3-3.5-0.1-4.6
					c-1.4-1.1-2.9-0.1-4.4,1.6c-1.5,1.6-1-1.5-0.2-2.8c1-1.7,0-2.9-1.7-3.2c-1.7-0.3-2.3,2.1-3.5,1c-1.9-1.7-4.8-1-4.1,1.4
					c0.7,2.4,1.5,3.2,0,3.5c-1.5,0.3-2.9-3.6-4.6-0.5c-1.7,3.1,1,4.1,0.8,6.4c-0.2,2.4,0.7,4.9,2.1,5.1c1.4,0.2,2.9-1.3,3.7-2.3
					c0.8-0.9,2.7-1.7,2.4,0.2c-0.2,1.2-0.2,3.8-0.3,5.3c2.9-1.4,6-2.9,7.7-3.4c0.1,0,0.1-0.1,0.2-0.1c-0.8-0.3-1.9-0.8-3-1.6
					C232,179.7,232.3,178.3,233.4,178z"/>
				<g>
					<path fill="#008348" d="M198.6,249.6c3.6-1.1,3.8,1.7,3.3,4.1c-0.5,2.4-0.5,7.4-0.3,9.9l6,0.3c-0.3-1.6,0-6.1,0.2-8.8
						c0.2-2.7,2.8-6.8,3.8-2.7c0.9,4.1,5,4.2,7.9,2.5c2.8-1.7,4.9-5.5,7.9-10.9c3-5.3-0.9-6.8-3.3-6.4c-2.4,0.3-4.7,0.6,0.6-3.8
						c5-4.1-3.4-6.2-7.2-6.9c-6.3,6.7-14.1,14.2-21.1,20.1c-0.9,0.8-1.7,1.5-2.5,2.2C194.6,249.8,196.2,250.4,198.6,249.6z"/>
					<path fill="#008348" d="M192.3,289.3c3-0.9,4.9,5.5,9.3,1.7c4.4-3.8,1.3-6.9,1.1-10.1c-0.2-3.1,3.5-4.4,2.4-8.3
						c-1.7-6-7.2-0.3-10.7,3c-3.5,3.3-3.6,0.6-0.2-4.7c3.5-5.4-2.2-7.1-5.7-5.7c-3.1,1.3-5.9,0-7.7-1.6c-1.3,2.1-2.3,4.1-3.3,6.1
						c-3,6.1-0.9,6.3,1.3,6.3c2.2,0,6.9,9.3,7.5,11c0.2,0.6,1.8,3,4,6C190.2,291.6,190.5,289.8,192.3,289.3z"/>
				</g>
				<path fill="#008348" d="M278.3,227.3c-2.8-0.6-6.5-1.1-6.9,4.7c-0.2,2.2,2,3.9,4.1,4.7c2,0.8,1.7,2.2-0.5,1.4
					c-2.2-0.8-3.9-1.3-5.5,3.3c-1.6,4.6,1.3,5.2,2.7,5.5c1.4,0.3,2.5,0.6,2.2,2.5c-0.3,1.9-1.3,7.4,2.4,7.9c3.6,0.5,6.8-3.9,7.9-6.1
					c1.1-2.2,2.4-4.4,2.7-1.9c0.3,2.5-0.2,3.8-1.4,6.6c-1.3,2.8-1.3,4.1,0.6,3.9c1.9-0.2,5,0,6-2.2c0.9-2.2,2.4-6.4,2.5-9.4
					c0.1-1.9,1.7-2.1,2.9-2c0.4-3.2,0.8-6.3,1.3-9c-6.2,0.9-11.4-6.6-13.3-13.1C283.9,226.3,280.8,227.9,278.3,227.3z"/>
				<path fill="#008348" d="M248.9,226.2c-1.1,1.9-4.2,7.2-2.8,9c1.4,1.7,3-1.7,4.2-0.5c1.3,1.3,4.1,2.7,4.1,1.7
					c0-0.9,0.3-2.8,0.8-5.3c0.5-2.5,1.6-3.9,2.7-1.9c1.1,2,2.7,3.8,6.6,2.8c3.9-0.9,3.5-5,2.7-8c-0.8-3,2-4.4,3.5-5.2
					c1.4-0.8,5-3.6,2.4-6.1c-2.7-2.5-5,1.1-7.4,1.6c-2.4,0.5-1.4-1.6,3.5-5.3c4.2-3.3,0.7-6.5-1.9-7.6c-6.8,6.8-18.8,17.9-21.4,20.4
					c-0.9,0.9-1.8,2-2.5,3.2C249.6,221.9,250,224.4,248.9,226.2z"/>
				<path fill="#008348" d="M287.9,289.4c2,1.9,6.9,4.6,10.4,1.4c3.5-3.1-0.8-6.6-1.3-9.1c-0.5-2.5,2.5-4.1,0.9-8.2
					c-2.7-7.1-6.8,1.4-9.1,3.8c-2.4,2.4-2-1.6,0.2-3.8c1.1-1.1,6-4.1,3.1-7.4c-2.8-3.3-6.9-1.4-9,0c-2,1.4-3.6,3.1-6.8,2.2
					c-3.1-0.9-5.8-1.3-7.7,3.3c-1.9,4.6,1.7,3.3,4.7,6.6c3,3.3,1.1,3.5-1.2,2.7c-2.4-0.8-3.5-3.8-6.9-3.3c-3.5,0.5-3.5,6-2.4,7.4
					c1.1,1.4,3.3,2.2,1.7,4.9c-1.6,2.7,0.8,5.8,3.6,7.1c2.8,1.3,7.1-3.8,8.7-5.8c1.6-2,3.1-1.6,2.8,0c-0.3,1.4-1,4.9-1.1,7.9
					c2.4-0.8,4.8-1.5,7-2.1c0-1.6-0.4-4.3-1.1-6.9C283.7,286.6,285.9,287.5,287.9,289.4z"/>
			</g>
			<g>
				<g>
					<path fill="#008348" d="M247,306.2c-3.8,1.1-4.4-0.6-6.9-1.6c-2.5-0.9-2.7,1.3-0.9,3.9c1.7,2.7,3.6,5.2,1.6,5.2
						c-2,0-3.6,0.3-3.9,1.9c-0.3,1.6-3.6-0.3-4.4-3.6c-0.8-3.3-1.6-9.6-3.3-6.4c-1.7,3.1-3.3,8.3-7.7,6c-4.4-2.4-1.4-5.5-3.6-7.7
						c-2.2-2.2-4.2-5-2-9c2.2-3.9,4.1-0.6,6.1-0.6c2,0,2.4-1.9,0.5-3.3c-1.9-1.4-4.2-8.2,4.4-7.7c3.3,0.2,6.9-0.9,9.7-3
						c2.8-2,10.2-0.9,7.2,4.2c-3,5.2-2,6.3-0.3,4.4c1.7-1.9,3.9-5.3,7.2-4.4c3.3,0.9,1.9,3.5-0.2,6.3c-2,2.8-0.8,4.7,0.8,5.8
						C252.9,297.8,255.8,303.7,247,306.2z"/>
					<path fill="#008348" d="M263.1,269.1c-2.8,0.2-6.3-0.6-6.3-0.6c-0.3,3-3.2,7.3-6.1,11.6c-0.3,0.5-2,0.5-2.8-0.2
						c-0.8-0.6-3-1.7-1.3-3.6c1.7-1.9,4.6-5.8,4.1-7.5c-0.5-1.7-1.7-3.3-3.6-0.9c-1.9,2.4-4.9,7.2-8.2,7.4c-3.3,0.2-6.6-2.8-5-5.8
						c1.6-3,2-4.6-0.2-7.2c-2.2-2.7-1.4-6.1,3.3-8.2c1.4-0.6,3.9,0,5.7,1.4c1.7,1.4,2.7,0,0.3-1.4c-2.4-1.4-4.2-3.1-4.6-6.3
						c-0.3-3,1.6-6.1,5.7-4.4c4.1,1.7,6.6,0.3,8.3-1.1c1.7-1.4,9.1-3.2,8,3.3c-0.8,4.7-3,4.9-3.6,7.4c-0.6,2.5,1.3,0.9,2.4-0.9
						c1.1-1.9,3.6-9.6,8.8-3.8c1.3,1.4,0.8,3.8-0.8,6.4c-1.6,2.7-0.3,4.2,0.6,5.7C268.7,261.7,270.9,268.7,263.1,269.1z"/>
				</g>
			</g>
			<g>
				<polygon fill="#FFFFFF" points="392.8,144.1 397.6,140.7 408,156.1 414.1,151.8 403.4,136.6 408.1,133.3 419.5,149.3 425.6,145 
					408.7,121.2 380.8,141 396.2,162.8 402.3,158.5 				"/>
				<polygon fill="#FFFFFF" points="412.9,197.7 422.1,193.5 415.8,179.9 437.1,171 433.2,162.5 403.1,175.6 				"/>
				<polygon fill="#FFFFFF" points="418.4,212.2 419.3,220.6 439.6,218.2 440.3,227 449.4,226.3 446.9,196.9 437.8,197.6 
					438.6,209.8 				"/>
				<polygon fill="#FFFFFF" points="419.4,240.8 419.5,250.9 449.3,250.8 449.1,240.8 				"/>
				<path fill="#FFFFFF" d="M433.4,265c-5-1-10.9-0.1-15,3c-3.7,2.8-5.4,5.6-6.4,10.8c-0.6,3.3-0.1,7.5,1,11.3l7.9-2.6
					c-0.8-1.8-1.1-4.6-0.3-7.3c1.6-5.4,6-7.8,11.3-7c5.7,0.8,8.9,6,7.9,12.2c-0.4,2.5-1.6,4.6-4.4,6.3l4.9,5.9c4-2.4,7-7.2,7.6-10.6
					c1.1-5.7-0.3-9.6-2.9-14.2C442.3,268.2,437.9,265.9,433.4,265z"/>
				<path fill="#FFFFFF" d="M427.9,306.6c-4.2-1.1-9.8,3.5-12.5,6.1c-1.6,1.5-7.1,7.1-9.6,6.2c-2.3-0.8-1.6-4.2-0.8-6.5
					c1.1-3.3,2.8-6.1,5.5-7.9l-4.9-2.2c-2.4,2-5.1,5.2-6.2,8.5c-1.3,3.8-1.8,8.1-1.2,10.9c0.7,3.6,1.9,5.9,6,5.5
					c3.1-0.3,11-5.4,15.5-9.7c2.3-2.2,4.3-2.4,5.3-1.8c1.7,0.9,1.6,3.7,1,5.5c-0.8,2.4-1.9,6-3.8,7.3l6.7,4.5
					c2.7-2.8,4.2-6.9,5-10.8C435.7,313,430.6,307.3,427.9,306.6z"/>
				<path fill="#FFFFFF" d="M390.6,109.2c-0.6-4.6-3.1-9.9-5.7-12.1c-4-3.5-8.7-4.4-13.8-3.8c-5.1,0.7-9.9,4-12.5,7.8
					c-2.9,4.1-4.6,9.9-3.4,14.9c1,4.5,2.9,7.3,7.2,10.3c2.7,1.9,6.8,3.2,10.7,3.8l0.8-8.2c-2-0.1-4.6-0.9-6.8-2.8
					c-4.2-3.7-4.5-9.5-1.8-13.2c3.4-4.6,9.2-5.6,14.4-2.2c2.1,1.4,2.9,3.6,3.3,6.9L390.6,109.2z"/>
				<path fill="#FFFFFF" d="M86.3,280.5c0.2-2.2,0.1-6.4,2.5-6.9c2.4-0.5,3.9,1.8,4.4,4.1c0.7,3.4,1.7,6.1,0.3,9l6.3-0.7
					c1-2.9,0.7-6.9,0-10.2c-0.8-3.9-2.1-6.6-4.9-9.1c-2.7-2.4-4.8-3.1-8.8-2.2c-2.4,0.5-6.8,4.9-6.9,13.7c0,1.7-0.4,4.8-1.9,4.9
					c-1.9,0.1-3.3-2.2-3.7-4c-0.5-2.4,0.2-7.8,1.1-9.9l-6.6,0c-1,3.8-1.3,9-0.5,12.9c1.8,8.5,7,11.3,11.2,10.9
					C83.3,292.4,85.6,287.7,86.3,280.5z"/>
				<polygon fill="#FFFFFF" points="73.1,244.5 96.6,244.2 96.5,236.8 73,237.1 72.9,227.1 65.4,227.2 65.7,255.2 73.2,255.1 				
					"/>
				<polygon fill="#FFFFFF" points="115.5,170.8 97.4,160.3 97.4,160.2 121.4,159.8 127.2,151 97.6,133.9 93.1,140.9 113.3,153.6 
					85.8,154.4 81.9,161.8 111,178.7 				"/>
				<path fill="#FFFFFF" d="M86.1,215.6c10,0,18.2-8.1,18.2-18.2c0-10-8.1-18.2-18.2-18.2c-10,0-18.2,8.1-18.2,18.2
					C68,207.5,76.1,215.6,86.1,215.6z M86.1,187.9c5.2,0,9.5,4.2,9.5,9.5c0,5.2-4.2,9.5-9.5,9.5c-5.2,0-9.5-4.2-9.5-9.5
					C76.7,192.2,80.9,187.9,86.1,187.9z"/>
				<path fill="#FFFFFF" d="M116,317c0-10-8.1-18.2-18.2-18.2c-10,0-18.2,8.1-18.2,18.2c0,10,8.1,18.2,18.2,18.2
					C107.9,335.2,116,327,116,317z M97.8,326.5c-5.2,0-9.5-4.2-9.5-9.5c0-5.2,4.2-9.5,9.5-9.5c5.2,0,9.5,4.2,9.5,9.5
					C107.3,322.2,103.1,326.5,97.8,326.5z"/>
				<path fill="#FFFFFF" d="M119.7,337.8c-2.8,2.5-4.1,8.4-1.5,12.3c-2.9-1.4-8.6-1.9-11.3,0.4c-6.5,5.7,1.4,13.9,7.9,20.4l9.1,9
					l24.1-20l-9.8-11.4C134.8,344.3,125.4,332.8,119.7,337.8z M120.8,369.5c-2.4-2.9-9.6-8.5-6.5-11.4c2.9-2.7,10.1,6,11,7.1
					L120.8,369.5z M132,359.4l-0.6-0.8c-2-2.4-8.8-9.6-6-12.2c2.6-2.4,9,5.8,10.8,8l0.8,0.9L132,359.4z"/>
			</g>
		</g>
		<g>
			<path fill="#BB9753" d="M227.2,431.7c1-0.5,2.4-1.1,3.1-0.6c0.6,0.5,4.4,3.1,6.8,5.2c2.4,2,3.1,2.7,1.3,3.8
				c-1.9,1.1-3.6,2.2-3.3,1.3c0.3-0.9,0.8-2.4-0.5-3.6c-1.3-1.3-4.3-3.6-5.7-4.7C227.9,432.3,227.2,431.7,227.2,431.7z"/>
			<path fill="#BB9753" d="M218.3,434.3c-0.8,0.7-0.9,1.9,0,2.8c0.9,0.9,6.2,5.3,7.1,6.2c0.9,0.9,2.1,1.2,3.5,0.9
				c1.4-0.3-1.7,1.7-2.8,2c-1.2,0.2-2.5,0.2-3.8-0.9c-1.3-1.2-8.3-7.9-9.8-9.2c-1.4-1.3,0.4-1.3,1.7-1.5
				C215.4,434.4,216.5,434.5,218.3,434.3z"/>
			<path fill="#BB9753" d="M209.5,394.1c0.5,1.4,0.6,2.7-1.6,2.4c-2.2-0.3-11.5-1.2-14.2-1.2c-0.6,0-0.4-1.6-1.3-0.9
				c-0.9,0.6-0.6,2-0.6,3.6c0,1.6-0.1,2.5-0.1,3.6c0.1,1.6,1.1,3.9,5.3,4.2c4.2,0.2,8.3-0.2,9.5-1.1c1.3-0.9-0.1-2.3-1.3-2.3
				c-1.2,0-8.3,0.5-9.7,0c-1.5-0.5-2.5-2.3-1.4-3c1.3-0.9,3.7,0.2,6.1,0.2c2.4,0,5-0.6,5.7-0.2c0.6,0.4,1.5,0.2,1.5,3.2
				c0,0.6,1.5,0.9,2.2,0.9c0.7,0,1,1.2,0.9,2.8c-0.1,1.6,0.1,1.9-2.8,1.9c-2.8,0-15-0.2-16.8-0.2c-0.7,0-0.8-0.5-0.9-2
				c-0.1-1.4-0.5-11.2-0.7-12c-0.2-0.8,1.9-0.9,3.5-0.5c1.6,0.3,3.7,0.6,6.4,0.8c2.7,0.2,6.8,0.6,6.8,0.6s2,0.2,2.3-0.4
				C208.7,393.8,209.3,393.6,209.5,394.1z"/>
		</g>
		<g>
			<g>
				<path fill="#BB9753" d="M252.6,59.4c0.3-0.8,0.6-1.6,0.9-2.3c-1.2,0.6-2.3,1.2-3.3,1.8C250.9,59.8,251.8,61.4,252.6,59.4z"/>
				<path fill="#BB9753" d="M281,60.9c-0.5-1.6-2,0.9-3.9,3.3c-2,2.4-4.8,0.9-5.1-0.2c-0.3-1.2-0.9-2.5-2.6-4.8
					c-1.7-2.3,1.7-5.4,3.1-5.8c1.4-0.4,3.2-0.7,3.7-1.1c0.4-0.3-0.3-2.7-0.7-4.4c-5.7,1.6-12.5,4.6-18.6,7.6
					c1.9,0.7,1.3,4.3,1.1,4.8c-0.2,0.6-0.9,3.7,0.5,1.8c1.4-1.9,2-2.6,3.5-3.1c1.5-0.5,3.1-0.4,3.2,1.8c0.1,2.2-0.9,2-1.3,3.5
					c-0.3,1.4,0,1.3,0.7,1.7c0.7,0.3,1.2,1.3,0.6,2.8c-0.6,1.5-2.9,1.7-5,1.4c-2.1-0.2-2.4,0.1-1.6,0.8c0.6,0.6,1.3,1.8,1.6,3.1
					c5.1-2.5,11.3-4.5,20.9-6.5C281.3,65.7,281.4,62.3,281,60.9z"/>
				<path fill="#BB9753" d="M231.3,92c-0.7-1.4-1.7-1.7-2.1-0.6c-0.4,1.1-1.2,4.8-3.6,5.8c-0.8,0.3-1.4,0.5-1.8,0.7
					c0.8,0.9,1.8,1.7,2.9,2.5c1.9-2,3.7-3.9,5.5-5.6C232,93.9,231.8,93,231.3,92z"/>
				<path fill="#BB9753" d="M254.8,73.2c-0.9-0.3-1.6,1-2.1,2c-0.5,0.9-1.7,2.5-3.8,2.3c-2-0.2-2.5-0.9-3.1-2.7
					c-0.6-1.7-1.8-2.3-3.3-2.3c-1.5,0-2.5-1.8-0.9-3.7c1.6-1.9,3.1-1,4.4-1c1.3,0,1.9-1.3,0.9-2c-0.8-0.6-2.2-2.2-2.5-3.4
					c-4.5,3-10.9,7.5-16.5,12.6c1,0.1,2.2,0.4,2.7,0.7c0.7,0.3,2,1.3,1.8,2.7c-0.2,1.4,0.3,1.7,1.2,0.8c0.9-0.9-0.2-3.8,2.8-4.9
					c2.9-1.1,3.3,1.1,3.1,2.6c-0.2,1.5,0,2.9,1.5,3.5c1.5,0.6,3.2,3.1-0.1,4.5c-3.3,1.4-5.1,1.7-6.5,2.1c-1.3,0.4-1,1.7,0.1,2.6
					c0.7,0.5,1.2,1,1.5,1.4c4.2-3.9,8.1-7,12.5-10c2.4-1.6,4.6-3.1,7-4.5C256,75,256.1,73.6,254.8,73.2z"/>
				<path fill="#BB9753" d="M224,87.9c0.1-1.6-1.1-2.1-1.9-2.4c-0.6-0.2-1.7-1.3-2.1-2.2c-0.8,1-1.5,2.1-2,3.1c0.3,1.1,0.7,2,1,3
					C220.9,89.3,223.9,89.2,224,87.9z"/>
			</g>
			<g>
				<path fill="#BB9753" d="M290.4,161.3c-5.1-0.3-11.3,0.7-17.1,3c1,0.6,2.1,2,4.2,1.3c3-1,4,2.1,2.6,3c-1.4,0.9-1.9,3.1,0.8,1.4
					c2.7-1.6,5,0.7,3.9,2.4c-1.1,1.7-2.5,0.4-2.2,2.8c0.3,2.4-0.2,4.6-2.4,5c-2.2,0.4-2.7-2.9-3.7-2.7c-1,0.2,0.2,5.8-0.2,5.9
					c-1.5,0.3-3,1.6-3.8,2.4c0.1,0,0.1,0.1,0.2,0.1c8.7,6.2,10.9,2.8,12.1-0.2c1.3-3,4.1-11.8,4.9-16.5
					C290.1,166.6,290.8,163.8,290.4,161.3z"/>
				<path fill="#BB9753" d="M271.7,178.4c0.5-1.2-0.8-2.2-2.1-1.3c-1.3,0.9-3.3,2.1-4.6-0.2c-1.3-2.3,1.5-2.5,1.7-3.6
					c0.2-1.1-0.9-1.3-0.4-3.1c0.5-1.8,2.5-1.3,3.9-0.3c1.7,1.1,1.2-1.5,0.9-2.5c-0.2-0.8-0.3-1.5-0.2-2.1c-1.7,0.8-3.4,1.6-5,2.6
					c-8.1,4.9-8.3,9.1-6.4,10.7c1.7,1.4,5.1,2.1,11,5.9C270.6,182.4,271.3,179.3,271.7,178.4z"/>
			</g>
			<path fill="#BB9753" d="M245.9,173.7c-3.3-1.7-6.6-5.3-8.8-9.6c0,0,0.2-0.6-0.8-0.6c-0.9,0-4.4-0.3-10.2-2.4
				c-5.8-2-6.6-0.8-7.4,1.7c-0.8,2.5-1.4,7.1-1.6,14.6c-0.2,7.5,3.1,12.3,5.2,11.5c1-0.4,3.6-1.7,6.3-3c0-1.5,0.1-4.1,0.3-5.3
				c0.2-1.8-1.6-1.1-2.4-0.2c-0.8,0.9-2.3,2.5-3.7,2.3c-1.4-0.2-2.4-2.7-2.1-5.1c0.2-2.4-2.5-3.3-0.8-6.4c1.7-3.1,3.1,0.8,4.6,0.5
				c1.5-0.3,0.7-1.1,0-3.5c-0.7-2.4,2.2-3.2,4.1-1.4c1.2,1.1,1.7-1.3,3.5-1c1.7,0.3,2.8,1.5,1.7,3.2c-0.8,1.3-1.3,4.5,0.2,2.8
				c1.5-1.7,3-2.7,4.4-1.6c1.4,1.1,0.5,3.4,0.1,4.6c-0.4,1.2,2.5,2.6,0.5,4c-2,1.4-4.3-1-5.5-0.7c-1.2,0.3-1.4,1.7,0.2,2.8
				c1,0.7,2.1,1.3,2.9,1.6c3.3-1.1,7.1-3.3,8.4-4l2,0.2C247,175.9,246.9,174.1,245.9,173.7z"/>
			<path fill="#BB9753" d="M234.3,208.3c-1.3-2.8-1.7-0.7-5.2,4.9c-1.8,2.8-6.2,8-11.8,13.8c3.9,0.8,12.2,2.8,7.3,6.9
				c-5.3,4.4-3,4.1-0.6,3.8c2.4-0.3,6.3,1.1,3.3,6.4c-3,5.3-5,9.1-7.9,10.9c-2.8,1.7-6.9,1.6-7.9-2.5c-0.9-4.1-3.6,0-3.8,2.7
				c-0.2,2.7-0.5,7.2-0.2,8.8l-6-0.3c-0.2-2.5-0.2-7.5,0.3-9.9c0.5-2.4,0.3-5.2-3.3-4.1c-2.4,0.7-4,0.1-4.8-0.4
				c-7,6.3-10.6,10.6-13,14.4c1.8,1.6,4.7,2.8,7.7,1.6c3.5-1.4,9.1,0.3,5.7,5.7c-3.5,5.3-3.3,8,0.2,4.7c3.5-3.3,9-9,10.7-3
				c1.1,3.9-2.5,5.2-2.4,8.3c0.2,3.1,3.3,6.3-1.1,10.1c-4.4,3.8-6.3-2.7-9.3-1.7c-1.8,0.6-2.2,2.2-2.1,3.7
				c3.9,5.5,9.6,13.4,11.7,16.7c3.2,5.2,3.2,11.5,4.4,10.5c1.3-0.9,4.2-3.8,5.2-4.6c0.9-0.8,1.9-1.7,1.4-3.5
				c-0.5-1.7-2.3-11-1.7-17.5c0.6-7.4,4.1-15.5,6.6-20.1c2.4-4.5,9.7-18.7,11.5-22.5c1.7-3.8,4.9-8.2,5.7-11.6
				c0.8-3.5,3.8-11.5,5-15.3C239.7,222.1,237.6,215.7,234.3,208.3z"/>
		</g>
		<path fill="#BB9753" d="M257.9,173.2c-0.9,2.5-2.2,5.7-2.8,7.2c-0.6,1.6-3.5,1-3.3-0.2c0.5-2.4-2.9-0.8-2.5-2.7
			c0.3-1.6-0.3-4.1,1.4-4.1C252.4,173.5,255.7,173.2,257.9,173.2z"/>
		<g>
			<path fill="#BB9753" d="M252.6,59.4c0.3-0.8,0.6-1.6,0.9-2.3c-1.2,0.6-2.3,1.2-3.3,1.8C250.9,59.8,251.8,61.4,252.6,59.4z"/>
		</g>
		<g>
			<path fill="#BB9753" d="M302.9,278.1c-4.1-6.8-4.9-9.4-5.5-16.3c-0.4-4.4,0-10,0.6-15.5c-1.2-0.1-2.8,0.1-2.9,2
				c-0.2,3-1.6,7.2-2.5,9.4c-0.9,2.2-4.1,2-6,2.2c-1.9,0.2-1.9-1.1-0.6-3.9c1.3-2.8,1.7-4.1,1.4-6.6c-0.3-2.5-1.6-0.3-2.7,1.9
				c-1.1,2.2-4.2,6.6-7.9,6.1c-3.6-0.5-2.7-6-2.4-7.9c0.3-1.9-0.8-2.2-2.2-2.5c-1.4-0.3-4.3-0.9-2.7-5.5c1.6-4.6,3.3-4.1,5.5-3.3
				c2.2,0.8,2.5-0.6,0.5-1.4c-2-0.8-4.2-2.5-4.1-4.7c0.4-5.8,4.1-5.3,6.9-4.7c2.5,0.5,5.6-0.9,7.7-3.2c0-0.1-0.1-0.3-0.1-0.4
				c-4.2-16,3.8-35.7,6-41.2c2.2-5.5,10.7-21,13.6-25.6c-1.6-0.8-5.7-2.9-8-4.1c-2.3-1.2-3.5-1.7-4.2-0.9c-0.6,0.9-1.4,1.3-2.5,2.9
				c-2.2,3.2-0.3,2.7,0.3,2.7c0.6,0,3.3,3.5,3.8,4.3c0.5,0.8,0,1.4-1.1,3.9c-1.4,3.3-2.4,10.9-3.6,15.4
				c-3.8,13.8-9.8,12.4-12.4,10.7c-2.7-1.7-3.5,0.9-6.1,4.7c-0.6,0.9-2.2,2.6-4.4,4.7c2.6,1.1,6,4.4,1.8,7.7
				c-4.9,3.8-5.8,5.8-3.5,5.3c2.4-0.5,4.7-4.1,7.4-1.6c2.7,2.5-0.9,5.3-2.4,6.1c-1.4,0.8-4.2,2.2-3.5,5.2c0.8,3,1.3,7.1-2.7,8
				c-3.9,0.9-5.5-0.8-6.6-2.8c-1.1-2-2.2-0.6-2.7,1.9c-0.5,2.5-0.8,4.4-0.8,5.3c0,0.9-2.8-0.5-4.1-1.7c-1.3-1.3-2.8,2.2-4.2,0.5
				c-1.4-1.7,1.7-7.1,2.8-9c1-1.8,0.6-4.2-5.7-1.4c-2,3.4-3.6,8.3-6.1,16c-3.5,10.5-11.3,24.9-14.5,30.1c-8.5,13.6-10,26.5-8.7,34.5
				c1.3,8,2.4,7.4,4.1,7.4c1.7,0,6,5.3,8.8,8.7c2.8,3.3,3.9,1.9,5.3,0.8c4.5-3.5,13.7-9.4,26.6-15.6c5.5-2.6,12.8-5.4,20-7.7
				c0.1-3,0.8-6.5,1.1-7.9c0.3-1.6-1.3-2-2.8,0c-1.6,2-5.8,7.1-8.7,5.8c-2.8-1.3-5.2-4.4-3.6-7.1c1.6-2.7-0.6-3.5-1.7-4.9
				c-1.1-1.4-1.1-6.9,2.4-7.4c3.5-0.5,4.6,2.5,6.9,3.3c2.4,0.8,4.2,0.6,1.2-2.7c-3-3.3-6.6-2-4.7-6.6c1.9-4.6,4.6-4.2,7.7-3.3
				c3.1,0.9,4.7-0.8,6.8-2.2c2-1.4,6.1-3.3,9,0c2.8,3.3-2,6.3-3.1,7.4c-2.1,2.1-2.5,6.1-0.2,3.8c2.4-2.4,6.4-10.9,9.1-3.8
				c1.6,4.1-1.4,5.7-0.9,8.2c0.5,2.5,4.7,6,1.3,9.1c-3.5,3.1-8.3,0.5-10.4-1.4c-2-1.9-4.2-2.8-3.3,0.6c0.7,2.5,1,5.2,1.1,6.9
				c6.9-1.9,12.9-3.1,15.9-2.8c4.5,0.4,7.9,1.7,7.7-2.4C309.2,287.7,307,284.9,302.9,278.1z M247,306.2c-3.8,1.1-4.4-0.6-6.9-1.6
				c-2.5-0.9-2.7,1.3-0.9,3.9c1.7,2.7,3.6,5.2,1.6,5.2c-2,0-3.6,0.3-3.9,1.9c-0.3,1.6-3.6-0.3-4.4-3.6c-0.8-3.3-1.6-9.6-3.3-6.4
				c-1.7,3.1-3.3,8.3-7.7,6c-4.4-2.4-1.4-5.5-3.6-7.7c-2.2-2.2-4.2-5-2-9c2.2-3.9,4.1-0.6,6.1-0.6c2,0,2.4-1.9,0.5-3.3
				c-1.9-1.4-4.2-8.2,4.4-7.7c3.3,0.2,6.9-0.9,9.7-3c2.8-2,10.2-0.9,7.2,4.2c-3,5.2-2,6.3-0.3,4.4c1.7-1.9,3.9-5.3,7.2-4.4
				c3.3,0.9,1.9,3.5-0.2,6.3c-2,2.8-0.8,4.7,0.8,5.8C252.9,297.8,255.8,303.7,247,306.2z M263.1,269.1c-2.8,0.2-6.3-0.6-6.3-0.6
				c-0.3,3-3.2,7.3-6.1,11.6c-0.3,0.5-2,0.5-2.8-0.2c-0.8-0.6-3-1.7-1.3-3.6c1.7-1.9,4.6-5.8,4.1-7.5c-0.5-1.7-1.7-3.3-3.6-0.9
				c-1.9,2.4-4.9,7.2-8.2,7.4c-3.3,0.2-6.6-2.8-5-5.8c1.6-3,2-4.6-0.2-7.2c-2.2-2.7-1.4-6.1,3.3-8.2c1.4-0.6,3.9,0,5.7,1.4
				c1.7,1.4,2.7,0,0.3-1.4c-2.4-1.4-4.2-3.1-4.6-6.3c-0.3-3,1.6-6.1,5.7-4.4c4.1,1.7,6.6,0.3,8.3-1.1c1.7-1.4,9.1-3.2,8,3.3
				c-0.8,4.7-3,4.9-3.6,7.4c-0.6,2.5,1.3,0.9,2.4-0.9c1.1-1.9,3.6-9.6,8.8-3.8c1.3,1.4,0.8,3.8-0.8,6.4c-1.6,2.7-0.3,4.2,0.6,5.7
				C268.7,261.7,270.9,268.7,263.1,269.1z"/>
		</g>
	</g>
</g>
</svg>
